<?xml version="1.0" encoding="UTF-8"?> <svg xmlns="http://www.w3.org/2000/svg" id="Logo" viewBox="0 0 662.79 216"> <defs> <style>.cls-1{fill:#1e1e1e;}.cls-2{fill:#76b900;}.cls-3{fill:#fff;}</style> </defs> <g id="NVIDIA_GeForce_RTX" data-name="NVIDIA GeForce RTX"> <polygon class="cls-1" points="307.33 0 249.46 216 249.46 216 594.09 216 651.96 0 307.33 0"></polygon> <polygon class="cls-2" points="651.96 0 594.09 216 604.91 216 662.79 0 651.96 0"></polygon> <polygon class="cls-2" points="0 0 0 216 249.46 216 307.33 0 0 0"></polygon> <g id="NVIDIA_Logo" data-name="NVIDIA Logo"> <path id="NVIDIA" class="cls-3" d="M173.41,200.41V233h9.22V200.41Zm-72.47,0V233h9.29v-24.8h7.2c2.39,0,4.09.6,5.24,1.82,1.45,1.56,2,4.06,2,8.64V233h9V215c0-12.88-8.22-14.62-16.25-14.62H100.94m87.3,0V233h14.95c8,0,10.56-1.32,13.37-4.29,2-2.08,3.27-6.66,3.27-11.66,0-4.58-1.09-8.67-3-11.22-3.41-4.55-8.33-5.44-15.67-5.44Zm9.14,7.1h4c5.75,0,9.47,2.58,9.47,9.27s-3.72,9.28-9.47,9.28h-4Zm-37.25-7.1-7.69,25.85-7.37-25.85h-9.94L145.65,233h13.28l10.6-32.61Zm64,32.61h9.22V200.42h-9.22Zm25.83-32.6L237.07,233h9.09l2-5.76h15.23l1.92,5.76h9.87l-13-32.6Zm31.67,35.28a4.56,4.56,0,1,1,4.56-4.56A4.56,4.56,0,0,1,281.61,235.71Zm0-8.24a3.68,3.68,0,1,0,3.62,3.68A3.58,3.58,0,0,0,281.61,227.47Zm.82,6.1-.88-1.88H281v1.88H280v-4.85h2a1.54,1.54,0,0,1,1.61,1.53,1.37,1.37,0,0,1-.9,1.28l1,2Zm-.64-3.95H281v1.25h.76a.62.62,0,0,0,.66-.62A.63.63,0,0,0,281.79,229.62Zm-25.87-23.25,5.58,15.27H250.16Z" transform="translate(-57.54 -57.54)"></path> <path id="Eye_Mark" data-name="Eye Mark" class="cls-3" d="M161.23,124v-7.83q1.14-.09,2.31-.12c21.44-.67,35.5,18.42,35.5,18.42s-15.19,21.09-31.47,21.09a19.88,19.88,0,0,1-6.34-1V130.78c8.35,1,10,4.7,15,13.06l11.16-9.41s-8.15-10.68-21.88-10.68a43.07,43.07,0,0,0-4.32.25m0-25.88v11.7c.77-.06,1.54-.11,2.31-.13,29.81-1,49.23,24.44,49.23,24.44s-22.31,27.12-45.54,27.12a33.49,33.49,0,0,1-6-.53V168a40.11,40.11,0,0,0,5,.32c21.63,0,37.27-11,52.41-24.11,2.51,2,12.79,6.9,14.9,9-14.4,12.06-47.95,21.77-67,21.77-1.84,0-3.6-.11-5.33-.28v10.17h82.19V98.12Zm0,56.43v6.17c-20-3.56-25.55-24.35-25.55-24.35A43.25,43.25,0,0,1,161.23,124v6.78h0c-8.37-1-14.91,6.81-14.91,6.81s3.67,13.17,14.94,17m-35.52-19.08a49.53,49.53,0,0,1,35.52-19.3v-6.35c-26.21,2.11-48.92,24.31-48.92,24.31s12.86,37.17,48.92,40.57V168C134.77,164.63,125.71,135.47,125.71,135.47Z" transform="translate(-57.54 -57.54)"></path> </g> <path class="cls-3" d="M467.68,205H449.83l-21-34.69H413.24V205H396.76v-85.1h51.06a14.21,14.21,0,0,1,14.23,14.22v22a14.22,14.22,0,0,1-14.23,14.23h-1Zm-54.44-49.79H441A4.2,4.2,0,0,0,445.2,151V139.39A4.32,4.32,0,0,0,441,135H413.24Z" transform="translate(-57.54 -57.54)"></path> <path class="cls-3" d="M536.76,119.93v14.84H512.42V205h-16.6V134.77H471.47V119.93Z" transform="translate(-57.54 -57.54)"></path> <path class="cls-3" d="M600.17,119.93H618.5L591.7,160.3,620,205h-20L581.6,176l-18.7,29H544.7l28.17-42.86-26.55-42.24h19.95l16.83,26.79Z" transform="translate(-57.54 -57.54)"></path> </g> </svg> 