<?xml version="1.0" encoding="UTF-8"?> <svg xmlns="http://www.w3.org/2000/svg" id="Слой_1" data-name="Слой 1" viewBox="0 0 208.76 152.8"> <defs> <style>.cls-1{fill:#76b900;}.cls-2{fill:#4cbb07;}</style> </defs> <path class="cls-1" d="M-213.76,199.8c2,.12,3.94.34,5.92.34,53.69,0,107.38.08,161.07-.09,4.64,0,5.71,1.25,5.61,5.75-.31,14.72-.11,29.45-.12,44.18,0,2.07.74,4.44-2.86,4.38s-2.75-2.57-2.76-4.54c-.06-8.77-.17-17.54,0-26.31.09-3.35-1.09-4.15-4.28-4.14q-76.56.12-153.13,0c-3.46,0-4.5,1-4.49,4.47q.18,48.15,0,96.3c0,3.86,1.29,4.67,4.87,4.65,35.63-.11,71.26-.07,106.89-.07,1.16,0,2.32.07,3.48,0,3.16-.19,3.47,2.38,3.65,4.33.28,2.88-2.29,1.66-3.58,1.66q-56.92.1-113.85.06c-2.15,0-4.3.09-6.45.14Z" transform="translate(213.76 -199.8)"></path> <path class="cls-1" d="M-43.95,274.15A39.21,39.21,0,0,1-5,313.57a39.43,39.43,0,0,1-39.42,39c-21.19-.18-38.76-18-38.73-39.25A39.27,39.27,0,0,1-43.95,274.15Z" transform="translate(213.76 -199.8)"></path> <path class="cls-1" d="M-113.91,271.23l-24.42,15.63c0-10.16,0-19.3,0-28.43,0-2.91,1.59-1.75,2.85-.95C-128.49,261.9-121.55,266.35-113.91,271.23Z" transform="translate(213.76 -199.8)"></path> <path class="cls-1" d="M-44.16,270.24a47.21,47.21,0,0,0-6.94.06c-4.63.69-5.16-1.71-4.91-5.43.16-2.39,1-3.14,3.33-3.09,5.63.1,11.26.12,16.89,0,3.3-.07,3.22,2,3.18,4.26s.35,4.46-3.1,4.24C-38.52,270.1-41.34,270.24-44.16,270.24Z" transform="translate(213.76 -199.8)"></path> <path d="M-186.13,209.71c-.43,2.44-1.66,4.21-4.48,4.16a4,4,0,0,1-4.25-4.39,4.11,4.11,0,0,1,4.39-4.35C-187.93,205.18-186.31,206.88-186.13,209.71Z" transform="translate(213.76 -199.8)"></path> <path d="M-204,205.05c2.49.38,4.26,1.71,4.29,4.41s-1.42,4.31-4.2,4.38-4.29-1.53-4.38-4.2S-206.63,205.59-204,205.05Z" transform="translate(213.76 -199.8)"></path> <path d="M-172.94,209.38c-.29,2.8-1.63,4.43-4.39,4.49s-4.31-1.71-4.37-4.28a4.14,4.14,0,0,1,4.31-4.43C-174.84,205.13-173.25,206.85-172.94,209.38Z" transform="translate(213.76 -199.8)"></path> <path d="M-44.06,282.07a31.18,31.18,0,0,1,31.17,31.26,31.33,31.33,0,0,1-31.19,31.34,31.42,31.42,0,0,1-31.17-31.36A31.16,31.16,0,0,1-44.06,282.07Z" transform="translate(213.76 -199.8)"></path> <path class="cls-2" d="M-42,305.61c-2.43,6.89,2,11,8.72,14,2.26,1,4.21,2.63,6.41,3.77,2,1,2,2.22.9,4s-2.06,2.14-3.94.94c-5.3-3.38-10.69-6.62-16.14-9.78-1.76-1-2-2.39-2-4.14,0-5.79.13-11.59,0-17.37-.07-2.35.57-3.24,3-3.25s3.23.88,3.09,3.22S-42,301.9-42,305.61Z" transform="translate(213.76 -199.8)"></path> </svg> 