<?xml version="1.0" encoding="UTF-8"?> <svg xmlns="http://www.w3.org/2000/svg" id="Слой_1" data-name="Слой 1" viewBox="0 0 76.81 55.46"> <defs> <style>.cls-1{fill:#76b800;}.cls-2{fill:#7ebd11;}.cls-3{fill:#76b801;}.cls-4{fill:#78ba05;}.cls-5{fill:#78b904;}.cls-6{fill:#8bc327;}.cls-7{fill:#84bf19;}</style> </defs> <path class="cls-1" d="M-80,479.64c-3.28-1.9-3.86-3.19-3.27-7.07q1.18-7.87,2.33-15.75c.45-3.08,1.86-5.29,5.17-5.83.34-.05.72-.14.75-.53.12-1.8,1.39-1.69,2.65-1.65s2.22,0,3.32,0,2.53-.18,2.66,1.65c0,.62.66.46,1.07.47h6.48c.49,0,1.05.07,1.09-.68.06-1.27.88-1.47,1.95-1.45,1.6,0,3.21,0,4.82,0,.69,0,1.5.06,1.57.87.08,1.1.69,1.23,1.58,1.44a5.59,5.59,0,0,1,4.37,5.06c.82,5.35,1.6,10.72,2.4,16.07.06.37-.06.79.3,1.08v3a4,4,0,0,1-3.66,3.32H-47a5.82,5.82,0,0,1-3.15-2.22c-2.43-2.71-4.88-5.39-7.41-8a2.22,2.22,0,0,0-1.8-.64c-1.66,0-3.32.05-5,0a3.51,3.51,0,0,0-3,1.44c-2.23,2.59-4.59,5.06-6.93,7.56a5.66,5.66,0,0,1-3.34,1.89Z" transform="translate(117.54 -424.18)"></path> <path class="cls-2" d="M-117.54,445.44c.53.38,1.53-.34,1.76.75.32,1.54-.54,1.76-1.76,1.57Z" transform="translate(117.54 -424.18)"></path> <path class="cls-3" d="M-109.52,443.37c0-6,0-11.93-.07-17.9,0-1.05.38-1.29,1.35-1.29q27.31,0,54.61,0c1.05,0,1.3.39,1.3,1.36-.05,7,0,13.92-.05,20.88-1.2.3-1.66-.09-1.64-1.4.07-4.42,0-8.84.05-13.26,0-1.06-.28-1.43-1.39-1.43q-25.54,0-51.11,0c-1.2,0-1.48.42-1.46,1.54.06,3.31,0,6.63.05,9.94C-107.85,443.09-108.16,443.69-109.52,443.37Z" transform="translate(117.54 -424.18)"></path> <path class="cls-4" d="M-97.59,466.81c-3.55,0-7.09,0-10.64,0-1.2,0-1.65-.26-1.62-1.56.07-4.75,0-9.51,0-14.27,0-.71-.34-1.66,1-1.62s.9,1,.9,1.71c0,4,.07,8.08,0,12.12,0,1.23.31,1.6,1.57,1.58,6.65-.06,13.3,0,20,0,.52,0,1.48-.51,1.43.72,0,.92-.45,1.33-1.47,1.31C-90.16,466.78-93.88,466.81-97.59,466.81Z" transform="translate(117.54 -424.18)"></path> <path class="cls-5" d="M-97.92,446.38a.9.9,0,0,1-.33.77c-1.42,1.69-2.86,3.36-4.24,5.09-.56.69-1,.61-1.64.13-.81-.59-.35-1,.06-1.44,1-1.17,1.95-2.4,3-3.55a1.09,1.09,0,0,0,0-1.7c-1.1-1.24-2.11-2.56-3.2-3.8-.52-.58-.36-.94.18-1.34s.9-.65,1.41,0c1.5,1.84,3,3.66,4.52,5.49A2.26,2.26,0,0,1-97.92,446.38Z" transform="translate(117.54 -424.18)"></path> <path class="cls-6" d="M-109.1,447.52c-.77.11-1.07-.25-1.06-1s.26-1.08,1-1.1,1.14.35,1.15,1.17S-108.39,447.61-109.1,447.52Z" transform="translate(117.54 -424.18)"></path> <path class="cls-7" d="M-112.11,446.52c.12.8-.28,1-1,1s-1.06-.29-1-1.05.33-1.05,1.08-1.06S-112,445.76-112.11,446.52Z" transform="translate(117.54 -424.18)"></path> <path class="cls-7" d="M-105.08,447.51c-.85.13-.94-.39-1-1.08s.36-1,1.09-1,1,.44,1,1.14S-104.36,447.59-105.08,447.51Z" transform="translate(117.54 -424.18)"></path> <path d="M-49,459.7a4.42,4.42,0,0,1-4.45,4.56,4.56,4.56,0,0,1-4.49-4.57,4.56,4.56,0,0,1,4.49-4.56A4.44,4.44,0,0,1-49,459.7Z" transform="translate(117.54 -424.18)"></path> <path d="M-70.66,455.16c1.32-.33,1.7.33,1.51,1.51s.25,1.56,1.35,1.38c1.29-.21,1.61.4,1.56,1.6s0,1.92-1.45,1.7c-1.13-.18-1.68.25-1.46,1.44s-.43,1.54-1.59,1.52-1.88-.12-1.64-1.49c.2-1.17-.32-1.65-1.47-1.47-1.41.21-1.42-.65-1.47-1.7s.27-1.81,1.56-1.6c1.09.18,1.57-.29,1.38-1.38C-72.63,455.24-71.89,454.92-70.66,455.16Z" transform="translate(117.54 -424.18)"></path> <path d="M-106.33,428.52c-.88-.07-1.5-.48-1.48-1.42a1.34,1.34,0,0,1,1.5-1.4,1.28,1.28,0,0,1,1.38,1.34C-104.89,428-105.43,428.43-106.33,428.52Z" transform="translate(117.54 -424.18)"></path> <path d="M-96,427.12a1.39,1.39,0,0,1-1.36,1.38,1.3,1.3,0,0,1-1.53-1.36,1.37,1.37,0,0,1,1.5-1.44C-96.56,425.71-96.14,426.3-96,427.12Z" transform="translate(117.54 -424.18)"></path> <path d="M-101.87,428.54c-.93-.19-1.51-.64-1.42-1.58a1.32,1.32,0,0,1,1.48-1.25,1.29,1.29,0,0,1,1.33,1.54C-100.54,428.11-101.13,428.45-101.87,428.54Z" transform="translate(117.54 -424.18)"></path> </svg> 