<?xml version="1.0" encoding="UTF-8"?> <svg xmlns="http://www.w3.org/2000/svg" width="192" height="32" viewBox="0 0 192 32" fill="none"> <path d="M163.881 27.2405C163.881 27.4474 163.843 27.6544 163.768 27.8425C163.692 28.0306 163.56 28.1999 163.428 28.3316C163.277 28.4633 163.108 28.5762 162.919 28.6514C162.731 28.7267 162.523 28.7643 162.335 28.7643C161.92 28.7643 161.524 28.6138 161.222 28.3316C161.071 28.1999 160.958 28.0306 160.883 27.8613C160.788 27.6732 160.751 27.4663 160.751 27.2593C160.751 27.0524 160.788 26.8643 160.883 26.6761C160.958 26.488 161.071 26.3187 161.222 26.187C161.373 26.0553 161.543 25.9424 161.731 25.8484C162.014 25.7355 162.335 25.6979 162.636 25.7543C162.938 25.8108 163.221 25.9424 163.447 26.1682C163.598 26.2999 163.711 26.4692 163.786 26.6573C163.843 26.8454 163.881 27.0336 163.881 27.2405Z" fill="#76B900"></path> <path d="M45.6325 0L37.0339 32H110.065L118.663 0H45.6325Z" fill="#1E1E1E"></path> <path d="M118.663 0L110.065 32H111.687L120.266 0H118.663Z" fill="#76B900"></path> <path d="M0 0V32H37.034L45.6325 0H0Z" fill="#76B900"></path> <path d="M17.197 21.1641V25.9989H18.5735V21.1641H17.197ZM6.44885 21.1641V25.9989H7.82537V22.3304H8.90018C9.25846 22.3304 9.50359 22.4245 9.6733 22.5938C9.88072 22.8196 9.975 23.1958 9.975 23.8731V25.9989H11.3138V23.3275C11.3138 21.4274 10.0881 21.1641 8.90018 21.1641H6.44885ZM19.4032 21.1641V25.9989H21.6283C22.8162 25.9989 23.1933 25.8107 23.6082 25.3592C23.9099 25.0582 24.0984 24.381 24.0984 23.6285C24.0984 22.9512 23.9287 22.3492 23.6647 21.973C23.1556 21.2958 22.4202 21.1641 21.3454 21.1641H19.4032ZM20.7609 22.2176H21.3454C22.1939 22.2176 22.7596 22.5938 22.7596 23.5909C22.7596 24.5879 22.2128 24.9642 21.3454 24.9642H20.7609V22.2176ZM15.2359 21.1641L14.0857 25.0018L12.992 21.1641H11.5212L13.0863 25.9989H15.0662L16.6502 21.1641H15.2359ZM24.7396 25.9989H26.1161V21.1641H24.7396V25.9989ZM28.5674 21.1641L26.6629 25.9989H28.0206L28.3223 25.1523H30.585L30.8679 25.9989H32.3387L30.4153 21.1641H28.5674ZM33.2627 26.3939C32.8855 26.3939 32.5838 26.0929 32.5838 25.7167C32.5838 25.3404 32.8855 25.0394 33.2627 25.0394C33.6398 25.0394 33.9415 25.3404 33.9415 25.7167C33.9415 26.0929 33.6398 26.3939 33.2627 26.3939ZM33.2627 25.1711C32.9609 25.1711 32.7347 25.3969 32.7347 25.7167C32.7347 26.0365 32.9609 26.2622 33.2627 26.2622C33.5644 26.2622 33.7906 26.0365 33.7906 25.7167C33.8095 25.4157 33.5832 25.1711 33.2627 25.1711ZM33.3946 26.0741L33.2627 25.7919H33.1872V26.0741H33.0175V25.3592H33.3192C33.4701 25.3592 33.5644 25.4721 33.5644 25.585C33.5644 25.6791 33.5078 25.7543 33.4324 25.7731L33.5832 26.0741H33.3946ZM33.3004 25.4909H33.1872V25.6791H33.3004C33.3569 25.6791 33.3946 25.6414 33.3946 25.585C33.3946 25.5286 33.3569 25.4909 33.3004 25.4909ZM29.4537 22.0482L30.2833 24.3057H28.6051L29.4537 22.0482Z" fill="white"></path> <path d="M135.974 28.6326C135.201 28.8208 134.409 28.896 133.617 28.896C132.787 28.896 131.957 28.7643 131.184 28.4821C130.468 28.2188 129.827 27.8237 129.261 27.2969C128.714 26.789 128.299 26.1682 127.997 25.4721C127.696 24.7573 127.545 23.9671 127.545 23.1018C127.545 22.2176 127.696 21.4275 127.997 20.7126C128.28 20.0165 128.714 19.3957 129.261 18.8878C129.808 18.3798 130.449 17.9848 131.165 17.7214C131.92 17.4392 132.712 17.3075 133.522 17.3263C134.352 17.3263 135.163 17.458 135.955 17.7214C136.709 17.9848 137.313 18.3422 137.784 18.7937L136.106 20.7126C135.823 20.3928 135.465 20.1482 135.087 19.9789C134.635 19.772 134.145 19.6779 133.636 19.6967C133.183 19.6967 132.749 19.772 132.353 19.9601C131.957 20.1294 131.618 20.374 131.316 20.675C131.014 20.9948 130.788 21.3522 130.637 21.7661C130.468 22.1988 130.392 22.6691 130.392 23.1394C130.392 23.6097 130.468 24.08 130.6 24.5315C130.732 24.9454 130.958 25.3216 131.241 25.6226C131.542 25.9425 131.901 26.187 132.297 26.3375C132.749 26.5068 133.24 26.6009 133.73 26.6009C134.032 26.6009 134.314 26.5821 134.616 26.5256C134.88 26.488 135.144 26.4128 135.389 26.2999V24.287H133.277V22.1423H137.822V27.9742C137.275 28.2376 136.634 28.4633 135.974 28.6326ZM142.762 19.866V22.1235H147.042V24.3246H142.762V28.595H140.122V17.5897H147.401V19.866H142.762ZM156.131 28.6138L151.681 21.4087H151.625L151.681 28.6138H149.098V17.6085H152.134L156.565 24.7949H156.603L156.546 17.6085H159.129V28.6138H156.131ZM171.348 28.6138L168.954 24.2493H168.048V28.6138H165.446V17.6085H169.651C170.179 17.6085 170.688 17.665 171.197 17.7778C171.688 17.8719 172.14 18.06 172.555 18.3234C172.951 18.5868 173.29 18.9254 173.517 19.3581C173.762 19.7908 173.875 20.3175 173.875 20.9383C173.875 21.6908 173.668 22.3116 173.272 22.8196C172.857 23.3275 172.31 23.685 171.593 23.9107L174.478 28.6326H171.348V28.6138ZM171.235 20.976C171.235 20.7126 171.179 20.5057 171.065 20.3552C170.952 20.2047 170.82 20.073 170.651 19.9789C170.462 19.8848 170.273 19.8284 170.066 19.7908C169.859 19.7532 169.651 19.7532 169.444 19.7532H168.011V22.3116H169.274C169.5 22.3116 169.727 22.2928 169.953 22.2552C170.179 22.2176 170.387 22.1611 170.575 22.0671C170.764 21.973 170.915 21.8413 171.028 21.672C171.179 21.4839 171.235 21.2582 171.235 20.976ZM184.755 26.2623C184.548 26.789 184.208 27.2781 183.793 27.6544C183.36 28.0494 182.851 28.3693 182.285 28.5574C181.663 28.7831 181.003 28.896 180.324 28.8772C179.589 28.8772 178.947 28.7643 178.363 28.5574C177.816 28.3504 177.307 28.0494 176.873 27.6544C176.458 27.2593 176.138 26.789 175.93 26.2623C175.704 25.6791 175.591 25.0771 175.61 24.4563V17.6085H178.269V24.2493C178.269 24.5315 178.306 24.8325 178.382 25.0959C178.457 25.3593 178.57 25.6038 178.74 25.8108C178.91 26.0365 179.136 26.2058 179.381 26.3187C179.645 26.4504 179.966 26.5068 180.343 26.5068C180.72 26.5068 181.04 26.4504 181.304 26.3187C181.55 26.2058 181.776 26.0365 181.946 25.8108C182.115 25.6038 182.228 25.3593 182.304 25.0959C182.379 24.8137 182.417 24.5315 182.417 24.2493V17.6085H185.076V24.4563C185.095 25.0771 184.981 25.6979 184.755 26.2623Z" fill="white"></path> <path d="M80.2716 17.0439V17.1756H79.8945V18.2103H79.7437V17.1756H79.3854V17.0439H80.2716ZM81.3842 17.0439H81.535V18.2103H81.3842V17.3073L81.0447 17.8905H80.9127L80.5922 17.3261V18.2103H80.4413V17.0439H80.5922L80.9882 17.7212L81.3842 17.0439Z" fill="white"></path> <path d="M72.1632 17.0439H73.5586L75.3311 22.857L76.8962 17.0439H78.5933L76.0099 25.566H74.558L72.8232 20.0728L71.1827 25.566H69.7308L66.9966 17.0439H68.8445L70.5039 22.857L72.1632 17.0439Z" fill="white"></path> <path d="M59.0017 18.4737C59.0017 17.6836 59.6428 17.0439 60.4159 17.0439H64.6963C65.4694 17.0439 66.1106 17.6836 66.1106 18.4737V24.1551C66.1106 24.9452 65.4694 25.566 64.6963 25.566H60.4159C59.6428 25.566 59.0017 24.9452 59.0017 24.1551V18.4737ZM64.0364 24.061C64.2815 24.061 64.4701 23.8729 64.4701 23.6283V19.0004C64.4701 18.7559 64.2815 18.5678 64.0364 18.5678H61.0759C60.8308 18.5678 60.6422 18.7747 60.6422 19.0004V23.6283C60.6422 23.8729 60.8308 24.061 61.0759 24.061H64.0364Z" fill="white"></path> <path d="M52.0626 17.0439L55.9281 22.7065V17.0439H57.5875V25.566H55.8715L52.0248 19.9223V25.566H50.3655V17.0439H52.0626Z" fill="white"></path> <path d="M98.6378 7.93896V9.93308H102.107V11.4569H98.6378V13.4322H102.956V14.956H96.9596V6.43396H102.956V7.93896H98.6378Z" fill="white"></path> <path d="M89.0209 14.956H87.2296L85.1177 11.4757H83.5526V14.956H81.8932V6.43396H87.0222C87.8141 6.43396 88.4553 7.07358 88.4553 7.86371V10.0648C88.4553 10.8549 87.8141 11.4945 87.0222 11.4945H86.9279L89.0209 14.956ZM83.5526 9.9707H86.3245C86.5696 9.9707 86.7582 9.78258 86.7582 9.53802V8.37164C86.7582 8.12708 86.5696 7.93896 86.3245 7.93896H83.5526V9.9707Z" fill="white"></path> <path d="M67.8641 14.956H66.2047V6.43396H72.1822V7.93896H67.8641V9.93308H71.3337V11.4569H67.8641V14.956Z" fill="white"></path> <path d="M60.6233 7.93896V9.93308H64.0929V11.4569H60.6233V13.4322H64.9603V14.956H58.964V6.43396H64.9603V7.93896H60.6233Z" fill="white"></path> <path d="M95.6018 7.93885H91.9814C91.7362 7.93885 91.5477 8.14579 91.5477 8.37154V13.0182C91.5477 13.2628 91.7362 13.4509 91.9814 13.4509H95.6018V14.9559H91.3214C90.5294 14.9559 89.8883 14.3163 89.8883 13.545V7.84479C89.8883 7.05466 90.5294 6.41504 91.3214 6.41504H95.6018V7.93885Z" fill="white"></path> <path d="M73.3701 7.84478C73.3701 7.05466 74.0112 6.41504 74.7843 6.41504H79.0648C79.8379 6.41504 80.479 7.05466 80.479 7.84478V13.5261C80.479 14.3163 79.8379 14.9371 79.0648 14.9371H74.7843C74.0112 14.9371 73.3701 14.3163 73.3701 13.5261V7.84478ZM78.4048 13.4321C78.6499 13.4321 78.8385 13.244 78.8385 12.9994V8.37153C78.8385 8.12697 78.6499 7.93885 78.4048 7.93885H75.4443C75.1992 7.93885 75.0106 8.14578 75.0106 8.37153V12.9994C75.0106 13.244 75.1992 13.4321 75.4443 13.4321H78.4048Z" fill="white"></path> <path d="M50.3655 7.84479C50.3655 7.05466 51.0066 6.41504 51.7986 6.41504H57.2104V7.95766H52.4963C52.2511 7.95766 52.0626 8.1646 52.0626 8.39035V12.3974C52.0626 12.5103 52.1191 12.6232 52.1946 12.6984L52.798 13.3004C52.8922 13.3945 52.9865 13.4321 53.1185 13.4321H55.3813C55.6264 13.4321 55.815 13.244 55.815 12.9994V11.4568H53.7973V9.91416H57.5121V13.545C57.5121 14.3163 56.8709 14.9559 56.079 14.9559H52.27C52.1568 14.9559 52.0437 14.9183 51.9494 14.8242L50.4975 13.3757C50.4221 13.3004 50.3655 13.1875 50.3655 13.0747V7.84479Z" fill="white"></path> <path d="M15.4055 9.83895V8.67258C15.5186 8.67258 15.6317 8.65376 15.7449 8.65376C18.9316 8.5597 21.0058 11.3816 21.0058 11.3816C21.0058 11.3816 18.743 14.5044 16.3294 14.5044C15.99 14.5044 15.6695 14.448 15.3866 14.3539V10.8548C16.6311 11.0053 16.8763 11.5509 17.6117 12.7925L19.271 11.4004C19.271 11.4004 18.0642 9.82014 16.0277 9.82014C15.8203 9.80132 15.6129 9.82014 15.4055 9.83895ZM15.4055 6.02002V7.75077C15.5186 7.75077 15.6317 7.73195 15.7449 7.73195C20.1761 7.58145 23.0612 11.3439 23.0612 11.3439C23.0612 11.3439 19.7424 15.3698 16.2917 15.3698C15.9712 15.3698 15.6883 15.3322 15.4055 15.2946V16.3669C15.6506 16.4045 15.8957 16.4233 16.1409 16.4233C19.3465 16.4233 21.6658 14.7866 23.9286 12.8489C24.3057 13.1499 25.8331 13.8648 26.1348 14.1846C24.004 15.9718 19.007 17.4016 16.1974 17.4016C15.9334 17.4016 15.6695 17.3827 15.4055 17.3639V18.8689H27.6056V6.02002H15.4055ZM15.4055 14.3728V15.2946C12.445 14.7678 11.6153 11.6826 11.6153 11.6826C11.6153 11.6826 13.0484 10.1023 15.4055 9.85776V10.8548C14.1609 10.7043 13.1993 11.8707 13.1993 11.8707C13.1993 11.8707 13.7272 13.8084 15.4055 14.3728ZM10.1257 11.5509C10.1257 11.5509 11.8793 8.95476 15.4055 8.69139V7.75077C11.521 8.07058 8.14575 11.3439 8.14575 11.3439C8.14575 11.3439 10.0502 16.856 15.4055 17.3451V16.3481C11.4645 15.8589 10.1257 11.5509 10.1257 11.5509Z" fill="white"></path> <path d="M127.545 3.14172H131.222C131.825 3.14172 132.296 3.63085 132.296 4.21403V5.86953C132.296 6.47153 131.806 6.94184 131.222 6.94184H128.789V9.55677H127.545V3.14172ZM130.731 5.81309C130.92 5.81309 131.052 5.66259 131.052 5.49328V4.6091C131.052 4.42097 130.901 4.27047 130.731 4.27047H128.789V5.79428H130.731V5.81309ZM133.145 3.14172H137.01C137.614 3.14172 138.085 3.63085 138.085 4.21403V5.86953C138.085 6.47153 137.595 6.94184 137.01 6.94184H136.935L138.519 9.55677H137.161L135.577 6.94184H134.389V9.55677H133.145V3.14172ZM136.501 5.81309C136.69 5.81309 136.822 5.66259 136.822 5.49328V4.6091C136.822 4.42097 136.671 4.27047 136.501 4.27047H134.389V5.79428H136.501V5.81309ZM139.085 8.50328V4.21403C139.085 3.61203 139.575 3.14172 140.159 3.14172H143.384C143.968 3.14172 144.459 3.63085 144.459 4.21403V8.50328C144.459 9.10527 143.968 9.57559 143.384 9.57559H140.159C139.575 9.57559 139.085 9.10527 139.085 8.50328ZM142.894 8.42803C143.082 8.42803 143.214 8.27753 143.214 8.10821V4.62791C143.214 4.43978 143.063 4.28928 142.894 4.28928H140.669C140.48 4.28928 140.348 4.43978 140.348 4.62791V8.12703C140.348 8.29634 140.499 8.44684 140.669 8.44684H142.894V8.42803ZM151.077 3.14172L148.739 9.57559H147.457L145.006 3.14172H146.42L148.155 7.88246L149.795 3.14172H151.077ZM151.813 3.14172H153.076V9.57559H151.813V3.14172ZM154.075 3.14172H157.394C158.526 3.14172 159.431 4.06353 159.431 5.17347V7.52503C159.431 8.65378 158.507 9.55677 157.394 9.55677H154.075V3.14172ZM157.206 8.42803C157.752 8.42803 158.186 7.99534 158.186 7.46859V5.26753C158.186 4.72197 157.752 4.28928 157.206 4.28928H155.32V8.42803H157.206ZM160.392 3.14172H164.899V4.28928H161.637V5.79428H164.258V6.94184H161.637V8.44684H164.899V9.5944H160.392V3.14172ZM165.766 3.14172H169.085C170.217 3.14172 171.122 4.06353 171.122 5.17347V7.52503C171.122 8.65378 170.198 9.55677 169.085 9.55677H165.766V3.14172ZM168.878 8.42803C169.425 8.42803 169.858 7.99534 169.858 7.46859V5.26753C169.858 4.72197 169.425 4.28928 168.878 4.28928H166.992V8.42803H168.878ZM179.268 6.8854V8.52209C179.268 9.10527 178.777 9.5944 178.193 9.5944H174.327V3.14172H178.098C178.702 3.14172 179.173 3.63085 179.173 4.21403V5.41803C179.173 5.75666 178.928 6.05766 178.608 6.13291C178.966 6.22697 179.268 6.52797 179.268 6.8854ZM175.572 5.66259H177.589C177.778 5.66259 177.929 5.51209 177.929 5.34278V4.6091C177.929 4.43978 177.778 4.28928 177.589 4.28928H175.572V5.66259ZM178.023 7.01709C178.023 6.82897 177.872 6.69728 177.684 6.69728H175.572V8.42803H177.684C177.872 8.42803 178.023 8.27753 178.023 8.10821V7.01709ZM185.094 3.14172L183.039 6.52797V9.57559H181.794V6.52797L179.739 3.14172H181.21L182.511 5.30516L183.793 3.14172H185.094Z" fill="white"></path> </svg> 