<?xml version="1.0" encoding="UTF-8"?> <svg xmlns="http://www.w3.org/2000/svg" id="Слой_1" data-name="Слой 1" viewBox="0 0 1920 396.43"> <defs> <style>.cls-1{fill:#fff;}</style> </defs> <path class="cls-1" d="M937.13,341.79H598.58c-78.48,0-113.36,49.16-121.3,95.94V341.79H289.39c-26.18,0-38.85,7.93-51.54,26.17l-51.52,75.31h750.8Z" transform="translate(0 -341.79)"></path> <polygon class="cls-1" points="0 396.43 134.79 396.43 303.66 123.69 183.15 111.79 0 396.43"></polygon> <rect class="cls-1" x="956.95" width="110.99" height="101.48"></rect> <path class="cls-1" d="M1772.54,500.37l-347.28-20.62c0,53.12,34.9,88.8,94.36,93.55l247.36,19c19,1.59,30.92,6.34,30.92,22.21,0,15.06-13.48,20.61-41.22,20.61h-337V738.21h344.1c108.61,0,156.18-38.05,156.18-124.48C1920,536.05,1877.19,506.7,1772.54,500.37Z" transform="translate(0 -341.79)"></path> <path class="cls-1" d="M1420.76,479.75l-109.42-6.35V590c0,36.47-18.23,47.57-81.66,47.57h-87.2c-52.33,0-74.53-15.07-74.53-47.57V462.31l-111-7.94V599.46h-2.38c-6.35-42-22.19-91.16-127.66-98.31l-347.25-23c0,53.13,38.07,84.83,97.53,91.18L819,593.92c19,1.58,33.31,7.13,33.31,23,0,17.44-14.27,19-36.48,19H475.7V477.37l-111-7.13v268H816.63c100.68,0,133.19-52.32,137.94-95.93H957c12.69,69,72.94,95.93,175.22,95.93h112.58c119.71,0,176-36.48,176-122.09Z" transform="translate(0 -341.79)"></path> <path class="cls-1" d="M1912.31,443.27V341.79H1539.67c-77.6,0-112.56,48.06-118.69,94.35-.08.52-.17,1.06-.22,1.59V341.79H1311.34V443.27h601Z" transform="translate(0 -341.79)"></path> </svg> 